<svg
  width="320"
  height="320"
  viewBox="0 0 320 320"
  fill="none"
  xmlns="http://www.w3.org/2000/svg"
  role="img"
  aria-labelledby="faqMascotTitle faqMascotDescription"
>
  <title id="faqMascotTitle">Edulure support mascot</title>
  <desc id="faqMascotDescription">Friendly character illustration with gradient glow and smile representing the Edulure help center.</desc>
  <defs>
    <linearGradient id="bubbleGradient" x1="0" y1="0" x2="1" y2="1">
      <stop offset="0%" stop-color="#6366F1" />
      <stop offset="50%" stop-color="#EC4899" />
      <stop offset="100%" stop-color="#FBBF24" />
    </linearGradient>
    <radialGradient id="glowGradient" cx="0.5" cy="0.4" r="0.6">
      <stop offset="0%" stop-color="rgba(255,255,255,0.95)" />
      <stop offset="100%" stop-color="rgba(255,255,255,0.05)" />
    </radialGradient>
  </defs>
  <rect width="320" height="320" rx="72" fill="url(#bubbleGradient)" />
  <circle cx="160" cy="150" r="96" fill="url(#glowGradient)" />
  <path
    d="M108 178c16 32 44 48 52 48s36-16 52-48"
    stroke="#312E81"
    stroke-width="16"
    stroke-linecap="round"
    stroke-linejoin="round"
    fill="none"
  />
  <path
    d="M104 122c0-10 8-18 18-18s18 8 18 18-8 18-18 18-18-8-18-18Zm80 0c0-10 8-18 18-18s18 8 18 18-8 18-18 18-18-8-18-18Z"
    fill="#1F2937"
  />
  <path
    d="M136 220c24 18 48 18 72 0"
    stroke="#F59E0B"
    stroke-width="12"
    stroke-linecap="round"
  />
  <path
    d="M82 262c36 24 120 24 156 0"
    stroke="rgba(255,255,255,0.45)"
    stroke-width="10"
    stroke-linecap="round"
  />
  <path
    d="M62 88c10-34 38-58 98-58 60 0 88 24 98 58"
    stroke="rgba(255,255,255,0.55)"
    stroke-width="12"
    stroke-linecap="round"
  />
  <path
    d="M40 184c-12 0-16 14-6 20l54 36-12 40c-2 6 5 11 10 8l42-24 42 24c5 3 12-2 10-8l-12-40 54-36c10-6 6-20-6-20H40Z"
    fill="rgba(255,255,255,0.2)"
  />
  <circle cx="72" cy="72" r="12" fill="#FDE68A" />
  <circle cx="256" cy="88" r="10" fill="#FBCFE8" />
  <circle cx="248" cy="246" r="14" fill="#A5B4FC" />
  <circle cx="64" cy="226" r="9" fill="#FCA5A5" />
</svg>
