<svg width="960" height="720" viewBox="0 0 960 720" fill="none" xmlns="http://www.w3.org/2000/svg">
  <defs>
    <linearGradient id="bg-gradient" x1="120" y1="80" x2="840" y2="640" gradientUnits="userSpaceOnUse">
      <stop stop-color="#22d3ee" stop-opacity="0.75" />
      <stop offset="0.5" stop-color="#a855f7" stop-opacity="0.6" />
      <stop offset="1" stop-color="#f97316" stop-opacity="0.7" />
    </linearGradient>
    <radialGradient id="planet-glow" cx="0" cy="0" r="1" gradientUnits="userSpaceOnUse" gradientTransform="translate(720 180) rotate(45) scale(220)">
      <stop stop-color="#bae6fd" stop-opacity="0.9" />
      <stop offset="1" stop-color="#0f172a" stop-opacity="0" />
    </radialGradient>
    <radialGradient id="orbit-glow" cx="0" cy="0" r="1" gradientUnits="userSpaceOnUse" gradientTransform="translate(320 520) scale(260)">
      <stop stop-color="#bbf7d0" stop-opacity="0.8" />
      <stop offset="1" stop-color="#0f172a" stop-opacity="0" />
    </radialGradient>
  </defs>
  <rect width="960" height="720" rx="48" fill="#0f172a" />
  <rect x="24" y="24" width="912" height="672" rx="40" fill="url(#bg-gradient)" fill-opacity="0.25" />
  <g opacity="0.9">
    <circle cx="720" cy="180" r="210" fill="url(#planet-glow)" />
    <circle cx="320" cy="520" r="240" fill="url(#orbit-glow)" />
  </g>
  <g opacity="0.75" stroke="rgba(255,255,255,0.35)" stroke-width="2" stroke-linecap="round">
    <path d="M140 320C260 260 380 240 520 280C660 320 760 300 840 240" />
    <path d="M160 420C280 360 420 360 560 400C700 440 800 420 860 360" />
    <path d="M200 520C320 460 460 460 620 520C740 560 820 560 880 520" />
  </g>
  <g fill="#f8fafc">
    <circle cx="220" cy="220" r="6" />
    <circle cx="280" cy="180" r="4" />
    <circle cx="640" cy="120" r="5" />
    <circle cx="760" cy="260" r="4" />
    <circle cx="640" cy="340" r="6" />
    <circle cx="480" cy="420" r="5" />
    <circle cx="420" cy="560" r="4" />
    <circle cx="540" cy="600" r="6" />
    <circle cx="700" cy="520" r="5" />
    <circle cx="820" cy="440" r="4" />
  </g>
  <g>
    <rect x="300" y="160" width="360" height="220" rx="28" fill="rgba(15,23,42,0.65)" stroke="rgba(255,255,255,0.25)" stroke-width="2" />
    <rect x="330" y="200" width="120" height="24" rx="12" fill="rgba(34,197,94,0.35)" />
    <rect x="330" y="240" width="180" height="18" rx="9" fill="rgba(248,250,252,0.75)" />
    <rect x="330" y="270" width="140" height="14" rx="7" fill="rgba(148,163,184,0.65)" />
    <rect x="330" y="310" width="280" height="12" rx="6" fill="rgba(148,163,184,0.45)" />
    <rect x="330" y="330" width="240" height="12" rx="6" fill="rgba(148,163,184,0.4)" />
    <rect x="470" y="200" width="160" height="120" rx="20" fill="rgba(79,70,229,0.35)" />
  </g>
  <g>
    <rect x="200" y="420" width="240" height="160" rx="26" fill="rgba(15,23,42,0.55)" stroke="rgba(255,255,255,0.2)" stroke-width="2" />
    <rect x="230" y="460" width="140" height="18" rx="9" fill="rgba(248,250,252,0.8)" />
    <rect x="230" y="490" width="100" height="14" rx="7" fill="rgba(148,163,184,0.55)" />
    <rect x="230" y="520" width="160" height="12" rx="6" fill="rgba(148,163,184,0.45)" />
  </g>
  <g>
    <circle cx="640" cy="480" r="70" fill="rgba(248,250,252,0.08)" stroke="rgba(248,250,252,0.25)" stroke-width="2" />
    <path d="M640 430L660 470L620 470L640 510" stroke="#f8fafc" stroke-width="3" stroke-linecap="round" stroke-linejoin="round" />
  </g>
</svg>
