<svg
  width="560"
  height="360"
  viewBox="0 0 560 360"
  fill="none"
  xmlns="http://www.w3.org/2000/svg"
  role="img"
  aria-labelledby="communitiesPreviewTitle communitiesPreviewDescription"
>
  <title id="communitiesPreviewTitle">Community analytics preview</title>
  <desc id="communitiesPreviewDescription">Card layout showing community avatars and engagement metrics from the Edulure dashboard.</desc>
  <defs>
    <linearGradient id="paint0_linear" x1="60" y1="40" x2="480" y2="320" gradientUnits="userSpaceOnUse">
      <stop stop-color="#34d399" />
      <stop offset="1" stop-color="#22d3ee" />
    </linearGradient>
    <linearGradient id="paint1_linear" x1="0" y1="0" x2="400" y2="260" gradientUnits="userSpaceOnUse">
      <stop stop-color="#1f2937" />
      <stop offset="1" stop-color="#111827" />
    </linearGradient>
    <filter id="shadow" x="0" y="0" width="560" height="360" filterUnits="userSpaceOnUse" color-interpolation-filters="sRGB">
      <feFlood flood-opacity="0" result="BackgroundImageFix" />
      <feOffset dy="24" />
      <feGaussianBlur stdDeviation="32" />
      <feColorMatrix type="matrix" values="0 0 0 0 0.0667 0 0 0 0 0.1608 0 0 0 0 0.2235 0 0 0 0.25 0" />
      <feBlend mode="normal" in2="BackgroundImageFix" result="effect1_dropShadow" />
      <feBlend mode="normal" in="SourceGraphic" in2="effect1_dropShadow" result="shape" />
    </filter>
    <filter id="cardShadow" x="96" y="72" width="368" height="232" filterUnits="userSpaceOnUse" color-interpolation-filters="sRGB">
      <feFlood flood-opacity="0" result="BackgroundImageFix" />
      <feOffset dy="12" />
      <feGaussianBlur stdDeviation="20" />
      <feColorMatrix type="matrix" values="0 0 0 0 0.0824 0 0 0 0 0.2627 0 0 0 0 0.3490 0 0 0 0.3 0" />
      <feBlend mode="normal" in2="BackgroundImageFix" result="effect1_dropShadow" />
      <feBlend mode="normal" in="SourceGraphic" in2="effect1_dropShadow" result="shape" />
    </filter>
  </defs>
  <g filter="url(#shadow)">
    <rect x="40" y="20" width="480" height="300" rx="40" fill="url(#paint1_linear)" />
    <rect x="40" y="20" width="480" height="300" rx="40" stroke="url(#paint0_linear)" stroke-opacity="0.6" stroke-width="4" />
    <rect x="88" y="68" width="384" height="240" rx="28" fill="#0f172a" opacity="0.7" />
    <g filter="url(#cardShadow)">
      <rect x="128" y="112" width="288" height="144" rx="24" fill="#111827" stroke="#1f2937" stroke-width="2" />
      <rect x="152" y="140" width="80" height="80" rx="18" fill="url(#paint0_linear)" opacity="0.65" />
      <rect x="248" y="140" width="128" height="12" rx="6" fill="#e2e8f0" opacity="0.9" />
      <rect x="248" y="164" width="96" height="10" rx="5" fill="#94a3b8" opacity="0.8" />
      <rect x="248" y="190" width="112" height="10" rx="5" fill="#334155" opacity="0.9" />
      <rect x="248" y="214" width="96" height="10" rx="5" fill="#475569" opacity="0.7" />
      <g transform="translate(152 232)">
        <circle cx="10" cy="10" r="10" fill="#34d399" opacity="0.9" />
        <circle cx="46" cy="10" r="10" fill="#22d3ee" opacity="0.85" />
        <circle cx="82" cy="10" r="10" fill="#a855f7" opacity="0.8" />
        <circle cx="118" cy="10" r="10" fill="#f97316" opacity="0.8" />
      </g>
    </g>
    <rect x="96" y="88" width="120" height="28" rx="14" fill="#1e293b" stroke="#0ea5e9" stroke-opacity="0.5" />
    <rect x="240" y="88" width="144" height="28" rx="14" fill="#1e293b" stroke="#0ea5e9" stroke-opacity="0.2" />
    <rect x="408" y="88" width="64" height="28" rx="14" fill="#1e293b" stroke="#0ea5e9" stroke-opacity="0.2" />
  </g>
</svg>
