<svg width="560" height="360" viewBox="0 0 560 360" fill="none" xmlns="http://www.w3.org/2000/svg">
  <defs>
    <linearGradient id="coursesGradient" x1="80" y1="40" x2="460" y2="320" gradientUnits="userSpaceOnUse">
      <stop stop-color="#6366f1" />
      <stop offset="1" stop-color="#a855f7" />
    </linearGradient>
    <linearGradient id="coursesSurface" x1="120" y1="80" x2="440" y2="280" gradientUnits="userSpaceOnUse">
      <stop stop-color="#0f172a" />
      <stop offset="1" stop-color="#1e1b4b" />
    </linearGradient>
    <filter id="coursesShadow" x="0" y="0" width="560" height="360" filterUnits="userSpaceOnUse" color-interpolation-filters="sRGB">
      <feFlood flood-opacity="0" result="BackgroundImageFix" />
      <feOffset dy="24" />
      <feGaussianBlur stdDeviation="34" />
      <feColorMatrix type="matrix" values="0 0 0 0 0.0784 0 0 0 0 0.0471 0 0 0 0 0.2118 0 0 0 0.28 0" />
      <feBlend mode="normal" in2="BackgroundImageFix" result="effect1_dropShadow" />
      <feBlend mode="normal" in="SourceGraphic" in2="effect1_dropShadow" result="shape" />
    </filter>
    <filter id="moduleShadow" x="132" y="116" width="296" height="176" filterUnits="userSpaceOnUse" color-interpolation-filters="sRGB">
      <feFlood flood-opacity="0" result="BackgroundImageFix" />
      <feOffset dy="12" />
      <feGaussianBlur stdDeviation="18" />
      <feColorMatrix type="matrix" values="0 0 0 0 0.1216 0 0 0 0 0.0863 0 0 0 0 0.3529 0 0 0 0.32 0" />
      <feBlend mode="normal" in2="BackgroundImageFix" result="effect1_dropShadow" />
      <feBlend mode="normal" in="SourceGraphic" in2="effect1_dropShadow" result="shape" />
    </filter>
  </defs>
  <g filter="url(#coursesShadow)">
    <rect x="48" y="20" width="464" height="300" rx="44" fill="#030712" />
    <rect x="48" y="20" width="464" height="300" rx="44" stroke="url(#coursesGradient)" stroke-opacity="0.9" stroke-width="4" />
    <rect x="96" y="68" width="368" height="224" rx="32" fill="url(#coursesSurface)" />
    <rect x="112" y="92" width="120" height="20" rx="10" fill="#312e81" opacity="0.6" />
    <rect x="244" y="92" width="96" height="20" rx="10" fill="#312e81" opacity="0.3" />
    <g filter="url(#moduleShadow)">
      <rect x="144" y="128" width="272" height="144" rx="26" fill="#0b1220" stroke="#312e81" stroke-opacity="0.4" stroke-width="2" />
      <rect x="176" y="160" width="96" height="96" rx="20" fill="url(#coursesGradient)" opacity="0.75" />
      <rect x="292" y="160" width="96" height="14" rx="7" fill="#ede9fe" opacity="0.92" />
      <rect x="292" y="188" width="82" height="12" rx="6" fill="#c7d2fe" opacity="0.85" />
      <rect x="292" y="214" width="100" height="12" rx="6" fill="#4338ca" opacity="0.65" />
      <rect x="292" y="240" width="76" height="12" rx="6" fill="#6366f1" opacity="0.55" />
    </g>
    <g transform="translate(116 276)">
      <rect x="0" y="0" width="64" height="20" rx="10" fill="#4338ca" opacity="0.6" />
      <rect x="84" y="0" width="64" height="20" rx="10" fill="#4338ca" opacity="0.35" />
      <rect x="168" y="0" width="64" height="20" rx="10" fill="#4338ca" opacity="0.2" />
    </g>
    <circle cx="432" cy="104" r="14" fill="#a855f7" opacity="0.8" />
    <circle cx="402" cy="104" r="8" fill="#6366f1" opacity="0.5" />
  </g>
</svg>
