<svg width="560" height="360" viewBox="0 0 560 360" fill="none" xmlns="http://www.w3.org/2000/svg">
  <defs>
    <linearGradient id="libraryGlow" x1="120" y1="40" x2="460" y2="320" gradientUnits="userSpaceOnUse">
      <stop stop-color="#38bdf8" />
      <stop offset="1" stop-color="#c084fc" />
    </linearGradient>
    <linearGradient id="librarySurface" x1="120" y1="80" x2="440" y2="280" gradientUnits="userSpaceOnUse">
      <stop stop-color="#0f172a" />
      <stop offset="1" stop-color="#1e293b" />
    </linearGradient>
    <filter id="libraryShadow" x="0" y="0" width="560" height="360" filterUnits="userSpaceOnUse" color-interpolation-filters="sRGB">
      <feFlood flood-opacity="0" result="BackgroundImageFix" />
      <feOffset dy="26" />
      <feGaussianBlur stdDeviation="34" />
      <feColorMatrix type="matrix" values="0 0 0 0 0.0784 0 0 0 0 0.0902 0 0 0 0 0.2118 0 0 0 0.26 0" />
      <feBlend mode="normal" in2="BackgroundImageFix" result="effect1_dropShadow" />
      <feBlend mode="normal" in="SourceGraphic" in2="effect1_dropShadow" result="shape" />
    </filter>
    <filter id="tileShadow" x="132" y="124" width="296" height="172" filterUnits="userSpaceOnUse" color-interpolation-filters="sRGB">
      <feFlood flood-opacity="0" result="BackgroundImageFix" />
      <feOffset dy="12" />
      <feGaussianBlur stdDeviation="18" />
      <feColorMatrix type="matrix" values="0 0 0 0 0.1608 0 0 0 0 0.1725 0 0 0 0 0.4235 0 0 0 0.32 0" />
      <feBlend mode="normal" in2="BackgroundImageFix" result="effect1_dropShadow" />
      <feBlend mode="normal" in="SourceGraphic" in2="effect1_dropShadow" result="shape" />
    </filter>
  </defs>
  <g filter="url(#libraryShadow)">
    <rect x="52" y="20" width="456" height="300" rx="44" fill="#020617" />
    <rect x="52" y="20" width="456" height="300" rx="44" stroke="url(#libraryGlow)" stroke-opacity="0.85" stroke-width="4" />
    <rect x="96" y="68" width="368" height="228" rx="32" fill="url(#librarySurface)" />
    <g transform="translate(116 92)">
      <rect x="0" y="0" width="96" height="22" rx="11" fill="#38bdf8" opacity="0.45" />
      <rect x="124" y="0" width="124" height="22" rx="11" fill="#38bdf8" opacity="0.18" />
      <rect x="272" y="0" width="64" height="22" rx="11" fill="#38bdf8" opacity="0.12" />
    </g>
    <g filter="url(#tileShadow)">
      <rect x="144" y="140" width="272" height="144" rx="28" fill="#111c2f" stroke="#1d4ed8" stroke-opacity="0.3" stroke-width="2" />
      <g transform="translate(168 164)">
        <rect x="0" y="0" width="92" height="92" rx="20" fill="#38bdf8" opacity="0.75" />
        <rect x="112" y="0" width="76" height="20" rx="10" fill="#e0f2fe" opacity="0.9" />
        <rect x="112" y="32" width="120" height="12" rx="6" fill="#bae6fd" opacity="0.8" />
        <rect x="112" y="54" width="96" height="12" rx="6" fill="#1d4ed8" opacity="0.6" />
        <rect x="112" y="76" width="84" height="12" rx="6" fill="#4f46e5" opacity="0.5" />
      </g>
    </g>
    <g transform="translate(132 292)">
      <rect x="0" y="0" width="72" height="20" rx="10" fill="#38bdf8" opacity="0.55" />
      <rect x="92" y="0" width="72" height="20" rx="10" fill="#38bdf8" opacity="0.3" />
      <rect x="184" y="0" width="72" height="20" rx="10" fill="#38bdf8" opacity="0.18" />
    </g>
    <circle cx="420" cy="104" r="12" fill="#c084fc" opacity="0.8" />
    <circle cx="396" cy="104" r="8" fill="#38bdf8" opacity="0.45" />
  </g>
</svg>
