<svg
  width="560"
  height="360"
  viewBox="0 0 560 360"
  fill="none"
  xmlns="http://www.w3.org/2000/svg"
  role="img"
  aria-labelledby="liveEventsPreviewTitle liveEventsPreviewDescription"
>
  <title id="liveEventsPreviewTitle">Live events stage preview</title>
  <desc id="liveEventsPreviewDescription">Stage layout with spotlight buttons representing Edulure live events and broadcasts.</desc>
  <defs>
    <linearGradient id="eventsGlow" x1="120" y1="40" x2="460" y2="320" gradientUnits="userSpaceOnUse">
      <stop stop-color="#f97316" />
      <stop offset="1" stop-color="#facc15" />
    </linearGradient>
    <linearGradient id="eventsPanel" x1="120" y1="80" x2="440" y2="280" gradientUnits="userSpaceOnUse">
      <stop stop-color="#1f2937" />
      <stop offset="1" stop-color="#0f172a" />
    </linearGradient>
    <filter id="eventsShadow" x="0" y="0" width="560" height="360" filterUnits="userSpaceOnUse" color-interpolation-filters="sRGB">
      <feFlood flood-opacity="0" result="BackgroundImageFix" />
      <feOffset dy="28" />
      <feGaussianBlur stdDeviation="36" />
      <feColorMatrix type="matrix" values="0 0 0 0 0.2235 0 0 0 0 0.1059 0 0 0 0 0.0353 0 0 0 0.3 0" />
      <feBlend mode="normal" in2="BackgroundImageFix" result="effect1_dropShadow" />
      <feBlend mode="normal" in="SourceGraphic" in2="effect1_dropShadow" result="shape" />
    </filter>
    <filter id="stageShadow" x="120" y="128" width="320" height="176" filterUnits="userSpaceOnUse" color-interpolation-filters="sRGB">
      <feFlood flood-opacity="0" result="BackgroundImageFix" />
      <feOffset dy="10" />
      <feGaussianBlur stdDeviation="16" />
      <feColorMatrix type="matrix" values="0 0 0 0 0.2627 0 0 0 0 0.1451 0 0 0 0 0.0706 0 0 0 0.32 0" />
      <feBlend mode="normal" in2="BackgroundImageFix" result="effect1_dropShadow" />
      <feBlend mode="normal" in="SourceGraphic" in2="effect1_dropShadow" result="shape" />
    </filter>
  </defs>
  <g filter="url(#eventsShadow)">
    <rect x="52" y="20" width="456" height="300" rx="42" fill="#020617" />
    <rect x="52" y="20" width="456" height="300" rx="42" stroke="url(#eventsGlow)" stroke-width="4" stroke-opacity="0.85" />
    <rect x="92" y="72" width="376" height="228" rx="32" fill="url(#eventsPanel)" />
    <g transform="translate(112 92)">
      <rect x="0" y="0" width="104" height="24" rx="12" fill="#f97316" opacity="0.5" />
      <rect x="132" y="0" width="120" height="24" rx="12" fill="#f97316" opacity="0.2" />
    </g>
    <circle cx="420" cy="104" r="12" fill="#facc15" opacity="0.9" />
    <circle cx="394" cy="104" r="8" fill="#f97316" opacity="0.5" />
    <g filter="url(#stageShadow)">
      <rect x="144" y="148" width="272" height="140" rx="24" fill="#0b1120" stroke="#fbbf24" stroke-opacity="0.25" stroke-width="2" />
      <rect x="172" y="176" width="216" height="64" rx="20" fill="#111827" />
      <rect x="188" y="190" width="56" height="36" rx="12" fill="#f97316" opacity="0.8" />
      <rect x="252" y="190" width="56" height="36" rx="12" fill="#facc15" opacity="0.8" />
      <rect x="316" y="190" width="56" height="36" rx="12" fill="#fb7185" opacity="0.8" />
      <rect x="188" y="244" width="184" height="10" rx="5" fill="#facc15" opacity="0.7" />
      <rect x="188" y="262" width="144" height="10" rx="5" fill="#fb923c" opacity="0.5" />
    </g>
    <path d="M112 264h336" stroke="#f8fafc" stroke-opacity="0.1" stroke-width="2" stroke-linecap="round" />
    <g transform="translate(144 284)">
      <rect x="0" y="0" width="68" height="20" rx="10" fill="#f97316" opacity="0.6" />
      <rect x="88" y="0" width="68" height="20" rx="10" fill="#f97316" opacity="0.3" />
      <rect x="176" y="0" width="68" height="20" rx="10" fill="#f97316" opacity="0.15" />
    </g>
  </g>
</svg>
